<!-- Generated by IcoMoon.io -->
<svg version="1.1" xmlns="http://www.w3.org/2000/svg" width="32" height="32" viewBox="0 0 32 32">
<title>message-circle</title>
<path fill="#ff6c00" d="M4 15.333c-0 0.009-0 0.019-0 0.029 0 1.837 0.444 3.571 1.229 5.1l-0.029-0.063c1.901 3.744 5.723 6.265 10.133 6.267h0c0.009 0 0.019 0 0.029 0 1.837 0 3.571-0.444 5.1-1.229l-0.063 0.029 7.6 2.533-2.533-7.6c0.756-1.466 1.2-3.2 1.2-5.038 0-0.010 0-0.020-0-0.031v0.002c-0.002-4.411-2.523-8.232-6.202-10.104l-0.064-0.030c-1.466-0.756-3.2-1.2-5.038-1.2-0.010 0-0.020 0-0.031 0h-0.665c-5.755 0.327-10.339 4.912-10.665 10.637l-0.001 0.030v0.667z"></path>
</svg>
