<!-- Generated by IcoMoon.io -->
<svg version="1.1" xmlns="http://www.w3.org/2000/svg" width="32" height="32" viewBox="0 0 32 32">
<title>thumb-up</title>
<path fill="#ff6c00" d="M19.141 11.958h-0.842c0 0.465 0.377 0.842 0.842 0.842v0-0.842zM19.141 6.568v0zM14.776 2.526v-0.842c-0.332 0.001-0.619 0.194-0.756 0.473l-0.002 0.005 0.758 0.364zM8.96 14.653l-0.76-0.364c-0.053 0.106-0.084 0.231-0.084 0.364v0h0.842zM8.96 29.474h-0.842c0 0.465 0.377 0.842 0.842 0.842v0-0.842zM25.368 29.474l0.008-0.842h-0.008v0.842zM28.278 27.183l-0.832-0.138v0.002l0.832 0.135zM30.284 15.057l0.832 0.138v-0.003l-0.832-0.136zM27.373 11.958v0.842h0.008l-0.008-0.842zM8.96 29.474v0.842c0.465 0 0.842-0.377 0.842-0.842v0h-0.842zM8.96 14.653h0.842c0-0.465-0.377-0.842-0.842-0.842v0 0.842zM19.985 11.958v-5.389h-1.684v5.389h1.684zM19.985 6.568c0-2.757-2.393-4.884-5.208-4.884v1.684c2.008 0 3.523 1.492 3.523 3.2h1.684zM14.018 2.163l-5.819 12.126 1.517 0.728 5.819-12.126-1.517-0.728zM8.116 14.653v14.821h1.684v-14.821h-1.684zM8.958 30.316h16.408v-1.684h-16.406v1.684zM25.357 30.316c1.819 0.019 3.458-1.213 3.749-2.998l-1.662-0.269c-0.143 0.871-0.985 1.595-2.070 1.583l-0.017 1.684zM29.107 27.321l2.008-12.126-1.662-0.276-2.008 12.126 1.662 0.276zM31.114 15.193c0.027-0.161 0.043-0.347 0.043-0.537 0-0.911-0.358-1.739-0.942-2.349l0.001 0.001-1.229 1.152c0.389 0.413 0.549 0.947 0.465 1.46l1.662 0.273zM30.216 12.308c-0.704-0.736-1.693-1.193-2.789-1.193-0.022 0-0.044 0-0.066 0.001l0.003-0 0.017 1.684c0.014-0 0.030-0.001 0.046-0.001 0.612 0 1.165 0.253 1.56 0.66l0.001 0.001 1.228-1.152zM27.373 11.116h-8.232v1.684h8.232v-1.684zM8.96 28.632h-4.367v1.684h4.367v-1.684zM4.595 28.632c-1.203 0-2.067-0.889-2.067-1.853h-1.684c0 2.013 1.741 3.537 3.751 3.537v-1.684zM2.526 26.779v-9.432h-1.684v9.432h1.684zM2.526 17.347c0-0.963 0.864-1.853 2.067-1.853v-1.684c-2.009 0-3.751 1.524-3.751 3.537h1.684zM4.593 15.495h4.367v-1.684h-4.367v1.684zM8.116 14.653v14.821h1.684v-14.821h-1.684z"></path>
</svg>
